# xmcd
#
# Track frame offsets:
#  150
#  13365
#  23786
#  34155
#  45387
#  56077
#  67645
#  80430
#  92005
#
# Disc length: 1401 seconds
#
# Revision: 0
# Processed by: cddbd v1.5.2PL0 Copyright (c) Steve Scherf et al.
# Submitted via: AltoMP3_Maker 3.0
#
DISCID=67057709
DTITLE=Patsy Cline - Forever
DYEAR=1900
DGENRE=
TTITLE0=Life's Railway To Heaven
TTITLE1=Walkin' Dream
TTITLE2=Three Cigarettes In An Ashtray
TTITLE3=I Can't Forget
TTITLE4=He Will Do For You What He Has Done For Me
TTITLE5=Cry Not For Me
TTITLE6=Yes I Understand
TTITLE7=Dear God(AKA I Go To Church On Sunday)
TTITLE8=Just A Closer Walk With Thee(with Willie Nelson)
EXTD=
EXTT0=
EXTT1=
EXTT2=
EXTT3=
EXTT4=
EXTT5=
EXTT6=
EXTT7=
EXTT8=
PLAYORDER=
